<?xml version="1.0" encoding="UTF-8"?>
<svg width="512" height="512" viewBox="0 0 512 512" fill="none" xmlns="http://www.w3.org/2000/svg">
  <rect width="512" height="512" rx="128" fill="#4a4feb"/>
  <path d="M256 128C310.9 128 356 173.1 356 228C356 282.9 310.9 328 256 328C201.1 328 156 282.9 156 228C156 173.1 201.1 128 256 128ZM327.8 338.9C362.1 311.4 384 272.2 384 228C384 158.1 325.9 100 256 100C186.1 100 128 158.1 128 228C128 272.2 149.9 311.4 184.2 338.9C140.9 363.1 112 408.1 112 459.9C112 460 112 460 112 460.1V472C112 476.4 115.6 480 120 480H392C396.4 480 400 476.4 400 472V460.1C400 460 400 460 400 459.9C400 408.1 371.1 363.1 327.8 338.9Z" fill="white"/>
</svg>
